<svg width="142" height="24" viewBox="0 0 142 24" fill="none" xmlns="http://www.w3.org/2000/svg">
<path d="M11.328 -1.90735e-06C12.736 -1.90735e-06 13.888 0.213332 14.784 0.639999C15.7013 1.04533 16.512 1.52533 17.216 2.08C17.6427 2.4 17.9627 2.44267 18.176 2.208C18.4107 1.952 18.5707 1.36533 18.656 0.448H19.392C19.3493 1.28 19.3173 2.29333 19.296 3.488C19.2747 4.66133 19.264 6.22933 19.264 8.192H18.528C18.4213 7.21067 18.2827 6.37867 18.112 5.696C17.9413 4.992 17.7067 4.37333 17.408 3.84C17.1093 3.30667 16.6827 2.82667 16.128 2.4C15.5947 1.86667 14.976 1.472 14.272 1.216C13.568 0.959999 12.832 0.831999 12.064 0.831999C10.912 0.831999 9.93067 1.14133 9.12 1.76C8.30933 2.35733 7.648 3.17867 7.136 4.224C6.64533 5.26933 6.28267 6.45333 6.048 7.776C5.81333 9.07733 5.696 10.432 5.696 11.84C5.696 13.2693 5.81333 14.6453 6.048 15.968C6.304 17.2693 6.688 18.432 7.2 19.456C7.73333 20.48 8.416 21.2907 9.248 21.888C10.08 22.4853 11.0613 22.784 12.192 22.784C12.896 22.784 13.6 22.656 14.304 22.4C15.0293 22.1227 15.648 21.728 16.16 21.216C16.992 20.576 17.5573 19.7867 17.856 18.848C18.1547 17.888 18.3787 16.6187 18.528 15.04H19.264C19.264 17.0667 19.2747 18.7093 19.296 19.968C19.3173 21.2053 19.3493 22.2507 19.392 23.104H18.656C18.5707 22.1867 18.4213 21.6107 18.208 21.376C18.016 21.1413 17.6853 21.1733 17.216 21.472C16.4267 22.0267 15.584 22.5173 14.688 22.944C13.8133 23.3493 12.6827 23.552 11.296 23.552C9.03467 23.552 7.05067 23.0933 5.344 22.176C3.65867 21.2587 2.34667 19.936 1.408 18.208C0.469334 16.48 5.96046e-07 14.4 5.96046e-07 11.968C5.96046e-07 9.57867 0.480001 7.488 1.44 5.696C2.42133 3.904 3.75467 2.50667 5.44 1.504C7.14667 0.501332 9.10933 -1.90735e-06 11.328 -1.90735e-06ZM32.9625 0.383999L40.7385 20.416C41.0372 21.184 41.3678 21.7173 41.7305 22.016C42.1145 22.2933 42.4558 22.4427 42.7545 22.464V23.104C42.1145 23.0613 41.3572 23.04 40.4825 23.04C39.6292 23.0187 38.7652 23.008 37.8905 23.008C36.9092 23.008 35.9812 23.0187 35.1065 23.04C34.2318 23.04 33.5385 23.0613 33.0265 23.104V22.464C34.1145 22.4213 34.7972 22.24 35.0745 21.92C35.3732 21.5787 35.3092 20.864 34.8825 19.776L29.4425 4.896L30.0185 4.064L25.1545 16.736C24.6852 17.9093 24.3972 18.8693 24.2905 19.616C24.2052 20.3627 24.2585 20.9387 24.4505 21.344C24.6638 21.7493 24.9945 22.0373 25.4425 22.208C25.9118 22.3573 26.4665 22.4427 27.1065 22.464V23.104C26.4025 23.0613 25.7305 23.04 25.0905 23.04C24.4505 23.0187 23.7998 23.008 23.1385 23.008C22.6692 23.008 22.2212 23.0187 21.7945 23.04C21.3892 23.04 21.0265 23.0613 20.7065 23.104V22.464C21.1545 22.3787 21.6132 22.0907 22.0825 21.6C22.5518 21.1093 23.0105 20.2773 23.4585 19.104L30.7545 0.383999C31.0958 0.405332 31.4585 0.415998 31.8425 0.415998C32.2478 0.415998 32.6212 0.405332 32.9625 0.383999ZM35.2025 13.888V14.528H25.6665L25.9865 13.888H35.2025ZM42.9933 0.448C43.5266 0.469333 44.2413 0.490666 45.1373 0.511999C46.0546 0.533332 46.9613 0.543999 47.8573 0.543999C48.8813 0.543999 49.8733 0.533332 50.8333 0.511999C51.7933 0.490666 52.4759 0.48 52.8813 0.48C55.8466 0.48 58.0653 1.06667 59.5373 2.24C61.0093 3.41333 61.7453 4.928 61.7453 6.784C61.7453 7.552 61.5959 8.36267 61.2973 9.216C60.9986 10.048 60.4866 10.8267 59.7613 11.552C59.0573 12.256 58.0866 12.832 56.8493 13.28C55.6119 13.728 54.0546 13.952 52.1773 13.952H48.9133V13.312H51.8573C53.1159 13.312 54.0653 13.024 54.7053 12.448C55.3666 11.872 55.8146 11.1147 56.0493 10.176C56.3053 9.23733 56.4333 8.224 56.4333 7.136C56.4333 5.10933 56.1346 3.59467 55.5373 2.592C54.9399 1.58933 53.9159 1.088 52.4653 1.088C51.6333 1.088 51.0893 1.26933 50.8333 1.632C50.5986 1.99467 50.4813 2.73067 50.4813 3.84V19.52C50.4813 20.352 50.5666 20.9707 50.7373 21.376C50.9079 21.7813 51.2386 22.048 51.7293 22.176C52.2199 22.304 52.9453 22.3787 53.9053 22.4V23.104C53.2439 23.0827 52.3906 23.0613 51.3453 23.04C50.2999 23.0187 49.2013 23.008 48.0493 23.008C47.1319 23.008 46.2359 23.0187 45.3613 23.04C44.4866 23.0613 43.6973 23.0827 42.9933 23.104V22.464C43.6759 22.4213 44.1879 22.336 44.5293 22.208C44.8706 22.08 45.0946 21.824 45.2013 21.44C45.3293 21.056 45.3933 20.48 45.3933 19.712V3.84C45.3933 3.05066 45.3293 2.47467 45.2013 2.112C45.0946 1.728 44.8599 1.472 44.4973 1.344C44.1559 1.19467 43.6546 1.10933 42.9933 1.088V0.448ZM71.4933 0.0319996C72.7519 0.0319996 73.7226 0.170666 74.4053 0.448C75.0879 0.703999 75.6746 0.981332 76.1653 1.28C76.4213 1.42933 76.6239 1.54667 76.7733 1.632C76.9439 1.696 77.1039 1.728 77.2533 1.728C77.4666 1.728 77.6159 1.61067 77.7013 1.376C77.8079 1.14133 77.8933 0.789332 77.9573 0.32H78.6933C78.6719 0.725333 78.6399 1.216 78.5973 1.792C78.5759 2.34667 78.5546 3.08267 78.5333 4C78.5333 4.91733 78.5333 6.12267 78.5333 7.616H77.7973C77.7119 6.50667 77.4559 5.42933 77.0293 4.384C76.6026 3.33867 75.9946 2.48533 75.2053 1.824C74.4373 1.14133 73.4879 0.799999 72.3573 0.799999C71.3333 0.799999 70.4906 1.088 69.8293 1.664C69.1679 2.24 68.8373 3.04 68.8373 4.064C68.8373 4.91733 69.0506 5.65333 69.4773 6.272C69.9039 6.86933 70.5226 7.456 71.3333 8.032C72.1653 8.608 73.1679 9.30133 74.3413 10.112C75.3653 10.7733 76.2826 11.4347 77.0933 12.096C77.9039 12.7573 78.5546 13.504 79.0453 14.336C79.5359 15.168 79.7813 16.16 79.7813 17.312C79.7813 18.72 79.4079 19.8827 78.6613 20.8C77.9359 21.7173 76.9759 22.4107 75.7813 22.88C74.5866 23.328 73.2746 23.552 71.8453 23.552C70.5226 23.552 69.4666 23.424 68.6773 23.168C67.8879 22.912 67.2266 22.6453 66.6933 22.368C66.2239 22.0693 65.8613 21.92 65.6053 21.92C65.3919 21.92 65.2319 22.0373 65.1253 22.272C65.0399 22.5067 64.9653 22.8587 64.9013 23.328H64.1653C64.2079 22.816 64.2293 22.2187 64.2293 21.536C64.2506 20.8533 64.2613 19.968 64.2613 18.88C64.2826 17.7707 64.2933 16.3733 64.2933 14.688H65.0293C65.1146 16.096 65.3493 17.4187 65.7333 18.656C66.1386 19.872 66.7466 20.8533 67.5573 21.6C68.3893 22.3467 69.4879 22.72 70.8533 22.72C71.5999 22.72 72.2613 22.592 72.8373 22.336C73.4346 22.0587 73.9146 21.6533 74.2773 21.12C74.6399 20.5867 74.8213 19.9253 74.8213 19.136C74.8213 18.24 74.6079 17.4613 74.1813 16.8C73.7759 16.1387 73.2106 15.52 72.4853 14.944C71.7813 14.368 70.9599 13.7813 70.0213 13.184C69.0186 12.5227 68.0799 11.8613 67.2053 11.2C66.3306 10.5387 65.6266 9.78133 65.0933 8.928C64.5813 8.07467 64.3253 7.06133 64.3253 5.888C64.3253 4.544 64.6559 3.44533 65.3173 2.592C65.9999 1.71733 66.8853 1.07733 67.9733 0.671999C69.0826 0.245333 70.2559 0.0319996 71.4933 0.0319996ZM102.565 0.448V1.088C101.882 1.17333 101.359 1.35467 100.997 1.632C100.655 1.888 100.431 2.304 100.325 2.88C100.218 3.456 100.165 4.26667 100.165 5.312V13.792C100.165 15.1787 100.069 16.448 99.8768 17.6C99.6848 18.752 99.3434 19.744 98.8528 20.576C98.2981 21.4933 97.4874 22.2187 96.4208 22.752C95.3541 23.2853 93.9994 23.552 92.3568 23.552C91.3754 23.552 90.3728 23.4347 89.3488 23.2C88.3248 22.9867 87.4074 22.5707 86.5968 21.952C85.9141 21.376 85.3914 20.7253 85.0288 20C84.6661 19.2747 84.4208 18.4213 84.2928 17.44C84.1648 16.4373 84.1008 15.2533 84.1008 13.888V3.84C84.1008 3.05066 84.0368 2.47467 83.9088 2.112C83.8021 1.728 83.5781 1.472 83.2368 1.344C82.8954 1.19467 82.3834 1.10933 81.7008 1.088V0.448C82.2341 0.469333 82.9488 0.490666 83.8448 0.511999C84.7621 0.533332 85.7114 0.543999 86.6928 0.543999C87.6741 0.543999 88.6128 0.533332 89.5088 0.511999C90.4261 0.490666 91.1834 0.469333 91.7808 0.448V1.088C91.0554 1.10933 90.5008 1.19467 90.1168 1.344C89.7541 1.472 89.5088 1.728 89.3808 2.112C89.2528 2.47467 89.1888 3.05066 89.1888 3.84V15.904C89.1888 16.9707 89.2528 17.92 89.3808 18.752C89.5301 19.5627 89.7648 20.2453 90.0848 20.8C90.4261 21.3333 90.8848 21.7387 91.4608 22.016C92.0368 22.2933 92.7514 22.432 93.6048 22.432C95.0981 22.432 96.2608 22.08 97.0928 21.376C97.9461 20.672 98.5434 19.7013 98.8848 18.464C99.2474 17.2053 99.4288 15.7653 99.4288 14.144V5.696C99.4288 4.52267 99.3541 3.62667 99.2048 3.008C99.0554 2.368 98.7568 1.90933 98.3088 1.632C97.8821 1.35467 97.2208 1.17333 96.3248 1.088V0.448C96.7301 0.469333 97.2634 0.490666 97.9248 0.511999C98.5861 0.533332 99.2048 0.543999 99.7808 0.543999C100.293 0.543999 100.794 0.533332 101.285 0.511999C101.797 0.490666 102.223 0.469333 102.565 0.448ZM114.323 0.448V1.088C113.598 1.10933 113.043 1.19467 112.659 1.344C112.297 1.472 112.051 1.728 111.923 2.112C111.795 2.47467 111.731 3.05066 111.731 3.84V20.096C111.731 20.7573 111.774 21.248 111.859 21.568C111.966 21.888 112.158 22.1013 112.435 22.208C112.734 22.3147 113.171 22.368 113.747 22.368H115.315C116.041 22.368 116.723 22.1973 117.363 21.856C118.003 21.5147 118.579 21.0347 119.091 20.416C119.603 19.776 120.03 19.0187 120.371 18.144C120.713 17.2693 120.969 16.2987 121.139 15.232H121.875C121.811 15.9573 121.779 16.896 121.779 18.048C121.779 18.5387 121.79 19.2533 121.811 20.192C121.833 21.1307 121.897 22.1013 122.003 23.104C120.915 23.0613 119.689 23.04 118.323 23.04C116.958 23.0187 115.742 23.008 114.675 23.008C114.142 23.008 113.459 23.008 112.627 23.008C111.795 23.008 110.899 23.0187 109.939 23.04C108.979 23.04 108.009 23.0507 107.027 23.072C106.046 23.072 105.118 23.0827 104.243 23.104V22.464C104.926 22.4213 105.438 22.336 105.779 22.208C106.121 22.08 106.345 21.824 106.451 21.44C106.579 21.056 106.643 20.48 106.643 19.712V3.84C106.643 3.05066 106.579 2.47467 106.451 2.112C106.345 1.728 106.11 1.472 105.747 1.344C105.406 1.19467 104.905 1.10933 104.243 1.088V0.448C104.777 0.469333 105.491 0.490666 106.387 0.511999C107.305 0.533332 108.275 0.543999 109.299 0.543999C110.238 0.543999 111.155 0.533332 112.051 0.511999C112.969 0.490666 113.726 0.469333 114.323 0.448ZM140.926 0.448C140.84 1.38667 140.776 2.29333 140.734 3.168C140.712 4.04267 140.702 4.71467 140.702 5.184C140.702 5.61067 140.712 6.016 140.734 6.4C140.755 6.784 140.776 7.104 140.798 7.36H140.062C139.848 5.80267 139.518 4.576 139.07 3.68C138.622 2.76267 138.035 2.12267 137.31 1.76C136.606 1.376 135.774 1.184 134.814 1.184H133.502C132.883 1.184 132.414 1.23733 132.094 1.344C131.774 1.45067 131.56 1.664 131.454 1.984C131.347 2.304 131.294 2.79467 131.294 3.456V20.096C131.294 20.7573 131.347 21.248 131.454 21.568C131.56 21.888 131.774 22.1013 132.094 22.208C132.414 22.3147 132.883 22.368 133.502 22.368H135.07C136.03 22.368 136.872 22.1653 137.598 21.76C138.344 21.3333 138.974 20.6187 139.486 19.616C140.019 18.6133 140.424 17.2587 140.702 15.552H141.438C141.374 16.2347 141.342 17.1307 141.342 18.24C141.342 18.7307 141.352 19.424 141.374 20.32C141.395 21.216 141.459 22.144 141.566 23.104C140.478 23.0613 139.251 23.04 137.886 23.04C136.52 23.0187 135.304 23.008 134.238 23.008C133.704 23.008 133.022 23.008 132.19 23.008C131.358 23.008 130.462 23.0187 129.502 23.04C128.542 23.04 127.571 23.0507 126.59 23.072C125.608 23.072 124.68 23.0827 123.806 23.104V22.464C124.488 22.4213 125 22.336 125.342 22.208C125.683 22.08 125.907 21.824 126.014 21.44C126.142 21.056 126.206 20.48 126.206 19.712V3.84C126.206 3.05066 126.142 2.47467 126.014 2.112C125.907 1.728 125.672 1.472 125.31 1.344C124.968 1.19467 124.467 1.10933 123.806 1.088V0.448C124.68 0.469333 125.608 0.490666 126.59 0.511999C127.571 0.511999 128.542 0.522666 129.502 0.543999C130.462 0.543999 131.358 0.543999 132.19 0.543999C133.022 0.543999 133.704 0.543999 134.238 0.543999C135.219 0.543999 136.328 0.543999 137.566 0.543999C138.824 0.522666 139.944 0.490666 140.926 0.448ZM135.934 11.392C135.934 11.392 135.934 11.4987 135.934 11.712C135.934 11.9253 135.934 12.032 135.934 12.032H130.334C130.334 12.032 130.334 11.9253 130.334 11.712C130.334 11.4987 130.334 11.392 130.334 11.392H135.934ZM136.862 7.168C136.776 8.384 136.734 9.312 136.734 9.952C136.755 10.592 136.766 11.1787 136.766 11.712C136.766 12.2453 136.776 12.832 136.798 13.472C136.819 14.112 136.872 15.04 136.958 16.256H136.222C136.115 15.5093 135.912 14.816 135.614 14.176C135.336 13.536 134.931 13.024 134.398 12.64C133.864 12.2347 133.171 12.032 132.318 12.032V11.392C132.958 11.392 133.502 11.264 133.95 11.008C134.398 10.7307 134.76 10.3787 135.038 9.952C135.336 9.504 135.571 9.03467 135.742 8.544C135.912 8.05333 136.04 7.59467 136.126 7.168H136.862Z" fill="#FCFCFD"/>
</svg>
